HIERARCHY
ROOT root
{
	OFFSET 0.000000 0.000000 0.000000
	CHANNELS 6 Xposition Yposition Zposition Zrotation Yrotation Xrotation
	JOINT lhip
	{
		OFFSET 0.058581 -0.082280 -0.017664
		CHANNELS 3 Zrotation Yrotation Xrotation
		JOINT lknee
		{
			OFFSET 0.043451 -0.386469 0.008037
			CHANNELS 3 Zrotation Yrotation Xrotation
			JOINT lankle
			{
				OFFSET -0.014790 -0.426874 -0.037428
				CHANNELS 3 Zrotation Yrotation Xrotation
				JOINT ltoe
				{
					OFFSET 0.041054 -0.060286 0.122042
					CHANNELS 3 Zrotation Yrotation Xrotation
					End Site
					{
						OFFSET 0.000000 0.000000 0.000000
					}
				}
			}
		}
	}
	JOINT rhip
	{
		OFFSET -0.060310 -0.090513 -0.013543
		CHANNELS 3 Zrotation Yrotation Xrotation
		JOINT rknee
		{
			OFFSET -0.043257 -0.383688 -0.004843
			CHANNELS 3 Zrotation Yrotation Xrotation
			JOINT rankle
			{
				OFFSET 0.019056 -0.420046 -0.034562
				CHANNELS 3 Zrotation Yrotation Xrotation
				JOINT rtoe
				{
					OFFSET -0.034840 -0.062106 0.130323
					CHANNELS 3 Zrotation Yrotation Xrotation
					End Site
					{
						OFFSET 0.000000 0.000000 0.000000
					}
				}
			}
		}
	}
	JOINT lowerback
	{
		OFFSET 0.004439 0.124404 -0.038385
		CHANNELS 3 Zrotation Yrotation Xrotation
		JOINT upperback
		{
			OFFSET 0.004488 0.137956 0.026820
			CHANNELS 3 Zrotation Yrotation Xrotation
			JOINT chest
			{
				OFFSET -0.002265 0.056032 0.002855
				CHANNELS 3 Zrotation Yrotation Xrotation
				JOINT lowerneck
				{
					OFFSET -0.013390 0.211636 -0.033468
					CHANNELS 3 Zrotation Yrotation Xrotation
					JOINT upperneck
					{
						OFFSET 0.010113 0.088937 0.050410
						CHANNELS 3 Zrotation Yrotation Xrotation
						End Site
						{
							OFFSET 0.000000 0.000000 0.000000
						}
					}
				}
				JOINT lclavicle
				{
					OFFSET 0.071702 0.114000 -0.018898
					CHANNELS 3 Zrotation Yrotation Xrotation
					JOINT lshoulder
					{
						OFFSET 0.122921 0.045205 -0.019046
						CHANNELS 3 Zrotation Yrotation Xrotation
						JOINT lelbow
						{
							OFFSET 0.255332 -0.015649 -0.022946
							CHANNELS 3 Zrotation Yrotation Xrotation
							JOINT lwrist
							{
								OFFSET 0.265709 0.012698 -0.007375
								CHANNELS 3 Zrotation Yrotation Xrotation
								End Site
								{
									OFFSET 0.000000 0.000000 0.000000
								}
							}
						}
					}
				}
				JOINT rclavicle
				{
					OFFSET -0.082954 0.112472 -0.023707
					CHANNELS 3 Zrotation Yrotation Xrotation
					JOINT rshoulder
					{
						OFFSET -0.113228 0.046853 -0.008472
						CHANNELS 3 Zrotation Yrotation Xrotation
						JOINT relbow
						{
							OFFSET -0.260127 -0.014369 -0.031269
							CHANNELS 3 Zrotation Yrotation Xrotation
							JOINT rwrist
							{
								OFFSET -0.269108 0.006794 -0.006027
								CHANNELS 3 Zrotation Yrotation Xrotation
								End Site
								{
									OFFSET 0.000000 0.000000 0.000000
								}
							}
						}
					}
				}
			}
		}
	}
}
MOTION
Frames: 15
Frame Time: 0.033333
0.027321 -0.959167 0.520462 -159.205865 -11.588744 111.301388 19.895237 16.839279 -75.754737 -7.627729 25.806852 123.752333 -1.466460 -3.318069 -36.636006 0.000000 -0.000000 0.000000 -20.445687 -20.511411 -50.174062 6.099256 -15.840372 136.856946 5.434461 10.127701 -24.375029 0.000000 -0.000000 0.000000 -0.193374 -1.392255 58.058152 6.351366 -15.227392 -7.551500 0.688636 -5.732529 -5.302903 -17.003276 13.710014 -23.301315 0.691341 -3.521784 -4.996979 2.057093 -53.584718 -7.161347 4.514559 -20.153939 -16.711683 1.316997 -16.310948 -4.613298 14.728341 -14.229461 -6.158141 14.938322 46.006995 6.363153 33.298770 37.719123 -1.858146 -13.487864 14.295218 -18.590140 -31.101858 12.000163 -14.964030 
0.022954 -0.969458 0.527796 -159.746252 -10.548837 111.065055 19.379454 16.712323 -75.877564 -7.208606 25.776154 123.152712 -1.058572 -2.393756 -37.059922 0.000000 -0.000000 0.000000 -20.165143 -20.875657 -51.627836 6.070226 -15.821659 136.451850 4.996292 9.079346 -24.539937 0.000000 -0.000000 0.000000 0.351301 -1.030979 59.451084 5.879931 -13.763679 -8.432226 0.807287 -5.064137 -5.111467 -17.185580 12.348339 -23.665882 0.536547 -4.041708 -5.343598 3.021892 -52.600427 -8.115537 4.589717 -20.822608 -16.248661 1.228828 -18.932076 -3.350013 15.095010 -14.842643 -6.400832 14.754038 45.672881 6.453185 29.966940 36.796130 -4.205199 -12.814519 13.700685 -19.674626 -30.406616 12.669991 -14.940131 
0.018885 -0.979856 0.539506 -160.394011 -9.163408 110.825375 18.832027 16.732494 -75.783565 -6.817984 25.587421 121.921495 -0.819009 -1.173211 -37.351467 0.000000 -0.000000 0.000000 -20.151784 -21.174001 -53.194094 6.368911 -16.149015 135.298847 5.921897 9.525944 -23.037036 0.000000 -0.000000 0.000000 0.934084 -0.765017 60.806152 5.476231 -12.403275 -7.927530 0.775936 -3.893735 -5.357278 -17.263361 11.373095 -24.561986 0.312197 -5.587113 -5.559871 4.741524 -51.409207 -10.137980 4.294951 -21.239442 -15.105979 1.726701 -21.640053 -1.671133 15.142446 -15.333934 -4.171787 14.721173 45.483123 6.471605 25.651527 36.198115 -7.789023 -12.877505 13.589999 -22.919375 -27.566485 11.102643 -15.685109 
0.015233 -0.987913 0.556629 -161.603820 -7.642954 110.340281 18.322627 16.987012 -74.463148 -6.274415 25.067539 119.875692 -0.827038 0.036162 -37.181355 0.000000 -0.000000 0.000000 -20.115822 -21.549425 -54.703168 7.116251 -16.152318 133.399862 7.399099 10.568331 -20.736826 0.000000 -0.000000 0.000000 1.224500 -0.717944 64.001227 4.450174 -10.915183 -8.877076 0.672330 -2.247899 -5.430367 -17.095817 9.578361 -25.413696 1.241825 -7.452994 -6.300979 5.457160 -50.128257 -11.920819 4.889576 -21.631685 -14.110322 0.774662 -24.452915 0.021430 15.057616 -15.849396 -3.638108 15.900385 45.848895 7.341550 20.786360 34.986893 -11.578786 -12.311326 12.685452 -24.637565 -26.309466 12.234564 -13.753982 
0.013319 -0.996727 0.574191 -162.907420 -5.455174 109.588961 18.184691 17.319005 -73.264406 -6.301789 23.958365 117.646617 -0.850103 1.968282 -37.039438 0.000000 -0.000000 0.000000 -20.001011 -21.518401 -55.746442 7.842723 -16.657533 131.499577 8.091932 11.993992 -19.797360 0.000000 -0.000000 0.000000 1.704459 -0.167527 67.021010 3.383253 -9.062667 -8.943230 0.390221 -0.422378 -5.319329 -16.213225 8.614830 -27.057217 1.796967 -10.822047 -6.714450 6.926763 -49.218051 -13.437978 5.643375 -21.906833 -13.135291 0.432831 -27.427073 -0.692540 14.755293 -15.800618 -1.813821 15.667255 45.878202 6.921406 16.503499 33.578624 -14.941136 -11.967406 11.974380 -26.237763 -24.352499 12.801409 -12.170227 
0.010533 -1.004660 0.591477 -164.209924 -3.379632 108.633647 18.094215 17.626035 -71.632540 -6.350847 22.568929 115.553562 -1.076451 3.006433 -37.182883 0.000000 -0.000000 0.000000 -20.020207 -21.850326 -56.442510 7.776331 -16.264540 129.431489 7.681505 11.399558 -20.558682 0.000000 -0.000000 0.000000 2.206020 0.056346 69.970831 2.116142 -7.578202 -8.890599 0.119461 1.319178 -5.242080 -15.324653 7.285552 -29.159464 2.489656 -13.735465 -6.863907 8.923331 -47.956239 -15.272614 5.301306 -21.738544 -11.776648 0.408922 -30.318776 0.632353 14.696749 -15.868261 -1.342894 14.769930 46.551599 6.128303 13.217852 32.104208 -17.820185 -11.926643 10.620074 -27.789657 -21.683366 13.115044 -11.047403 
0.008026 -1.011685 0.605034 -165.504900 -1.392958 108.164638 18.212387 18.052482 -70.690255 -6.277307 21.474842 113.925087 -0.782009 4.456264 -37.415857 0.000000 -0.000000 0.000000 -19.533021 -22.423748 -58.392161 7.482250 -15.547334 127.550825 5.917276 7.594494 -22.012136 0.000000 -0.000000 0.000000 2.800565 0.166830 71.716065 0.768659 -6.140888 -9.471792 0.063184 2.322005 -5.134776 -14.523390 4.747693 -29.629718 3.628223 -14.685502 -7.437714 7.941564 -46.390372 -15.415982 5.347798 -21.175273 -10.184137 -0.772977 -33.677085 3.566314 15.667238 -15.613329 -2.255113 15.826879 47.773998 7.430307 9.333475 30.405040 -20.435642 -10.782584 8.550907 -29.386383 -20.635536 13.403970 -10.582427 
0.006682 -1.020228 0.613779 -167.109626 0.528686 107.351576 19.057689 18.880482 -69.677217 -6.000743 20.954171 113.107594 -0.877016 5.442010 -37.539123 0.000000 -0.000000 0.000000 -19.642167 -22.520496 -60.708716 7.437453 -15.212401 126.264468 5.721261 6.207006 -23.170172 0.000000 -0.000000 0.000000 3.186500 1.050215 72.584758 -0.260513 -4.496144 -8.687260 -0.147874 3.361693 -5.236269 -13.735475 4.105680 -30.680552 4.138180 -16.768498 -7.270423 7.777645 -45.083439 -15.625305 5.435602 -21.021206 -9.078350 -1.828825 -36.273542 4.700149 16.479274 -15.853978 -3.352525 16.099853 48.071828 7.883713 6.450902 29.133772 -22.523424 -10.683085 7.121758 -30.759247 -19.512650 13.653537 -9.643826 
0.005185 -1.028983 0.617695 -168.204724 2.019861 106.280148 19.661138 19.311181 -68.824666 -5.555590 20.258684 113.052015 -0.875449 6.149488 -37.834495 0.000000 -0.000000 0.000000 -20.442002 -22.749866 -62.714403 7.362446 -14.766030 125.449704 6.212621 5.719500 -23.482862 0.000000 -0.000000 0.000000 3.708330 1.555347 72.961634 -0.980973 -3.290853 -7.759383 -0.382947 4.299741 -5.349721 -13.117546 3.841772 -31.276107 4.408855 -18.265603 -7.132182 7.968345 -43.882396 -15.228339 4.602783 -20.127355 -8.350455 -1.752562 -39.360889 5.717140 15.572241 -15.506714 -4.184056 15.895201 48.112163 7.822172 4.915841 28.183184 -24.172713 -11.144205 6.023232 -31.736214 -17.356650 13.532926 -8.398623 
0.004543 -1.038224 0.615746 -168.780983 3.143295 105.900173 20.436105 19.468938 -69.226209 -5.176775 20.325901 113.530440 -0.371502 7.298027 -38.218903 0.000000 -0.000000 0.000000 -21.412715 -23.318838 -65.364995 7.386643 -14.821255 125.293273 6.476822 5.054226 -23.453182 0.000000 -0.000000 0.000000 4.008217 1.766852 72.021620 -1.106813 -2.080981 -7.114180 -0.615097 4.625949 -5.431993 -12.529363 3.419216 -31.274888 4.460706 -18.858320 -6.998776 6.463194 -42.219932 -14.605815 4.596438 -19.831154 -7.055198 -2.946335 -41.772924 7.683239 15.654344 -15.423844 -4.972988 16.826419 48.005893 8.789456 3.454402 28.065084 -24.793190 -11.581228 4.623642 -32.595085 -15.853863 13.750907 -7.492144 
0.005344 -1.047459 0.608350 -169.056836 3.934635 105.637312 21.192521 19.656616 -70.631588 -5.082075 20.692458 114.663721 -0.637489 7.735593 -39.247594 0.000000 -0.000000 0.000000 -22.109126 -23.929836 -68.548578 7.200257 -15.136088 125.709370 6.302906 3.745663 -24.319073 0.000000 -0.000000 0.000000 3.982907 2.196473 70.208566 -0.745948 -1.013527 -6.044185 -0.601796 4.728659 -5.576617 -11.966969 3.642459 -30.866209 4.278167 -19.253644 -7.206071 5.550032 -40.724895 -13.423819 4.294136 -19.184028 -6.535173 -3.506728 -43.644625 9.918690 16.422677 -15.398258 -6.386920 17.852472 47.496542 10.169357 2.098985 28.305038 -25.736476 -11.606099 3.765434 -31.725368 -15.760139 13.902677 -8.146922 
0.007979 -1.056667 0.598025 -169.297049 4.432695 105.493209 22.251753 20.415274 -71.517329 -4.281227 21.208387 116.096476 0.289756 7.830622 -39.582114 0.000000 -0.000000 0.000000 -22.613444 -24.115980 -71.979932 7.092030 -15.659074 125.939055 6.069504 3.616565 -24.654749 0.000000 -0.000000 0.000000 3.378335 2.653564 67.987242 -0.231243 0.006766 -4.687865 -0.596005 4.929818 -5.904180 -11.640725 3.847588 -30.591005 4.243738 -19.774617 -7.202486 5.039161 -39.539972 -12.481738 3.951629 -18.119354 -6.067692 -3.236861 -45.387838 9.372170 15.726278 -15.447109 -5.579759 18.951055 46.993028 11.582966 2.504809 28.790623 -26.108120 -14.266631 3.994317 -36.084717 -12.948378 14.113176 -3.230666 
0.011698 -1.065285 0.586457 -169.494119 4.555324 105.069548 22.873095 21.065853 -72.770328 -4.066706 21.828450 117.628842 0.522267 8.018196 -40.099030 0.000000 -0.000000 0.000000 -22.801944 -23.992917 -75.003366 7.369528 -16.374729 125.676022 5.989886 4.483084 -24.889362 0.000000 -0.000000 0.000000 2.451674 3.130035 66.135169 0.327665 0.682313 -3.822788 -0.405785 5.024372 -5.876828 -11.384024 4.158355 -30.145604 4.167377 -20.055311 -7.282473 4.800484 -38.281631 -11.823545 3.522912 -17.249890 -5.912971 -2.649121 -46.521347 8.461359 15.953975 -15.403839 -5.760793 19.457251 46.441849 12.192768 3.307219 29.984567 -26.225503 -16.371448 3.896716 -39.124252 -10.866827 14.100540 0.350086 
0.016234 -1.072999 0.574137 -169.353624 4.510825 104.262615 23.428582 21.225508 -73.867074 -4.048050 22.198411 119.343070 0.190776 8.498689 -40.292386 0.000000 -0.000000 0.000000 -23.124991 -23.667641 -76.916748 6.994027 -16.706433 126.890031 5.931761 4.664656 -25.611689 0.000000 -0.000000 0.000000 1.790418 3.221340 65.007672 0.700137 1.213945 -4.093667 -0.149238 5.011742 -5.294306 -11.029785 4.848345 -29.182680 3.842225 -20.519485 -7.563764 4.582634 -37.232808 -10.709216 3.123583 -17.070199 -6.080727 -1.470034 -46.284848 8.976264 17.859303 -15.099067 -8.511375 19.485764 45.575118 12.625903 3.011532 30.874098 -26.036489 -14.687729 3.967518 -33.834055 -15.352594 13.773678 -6.428700 
0.020714 -1.080856 0.559434 -168.288377 3.956046 104.071943 23.514969 21.012761 -75.933652 -3.784588 22.764898 120.983932 0.915891 8.788919 -40.593843 0.000000 -0.000000 0.000000 -23.673612 -24.638021 -78.508237 6.465248 -17.101486 129.680846 5.280863 3.665307 -26.086952 0.000000 -0.000000 0.000000 1.744898 2.651293 62.949253 1.348765 1.055973 -4.596198 -0.212562 4.859173 -4.448021 -10.829912 4.632285 -27.949319 3.768405 -20.223680 -7.839039 4.065650 -36.708772 -9.611558 2.563842 -16.876285 -6.300895 0.124181 -45.766039 7.986877 18.687063 -14.579787 -9.769667 20.749144 44.971213 14.350129 2.578139 31.403918 -26.376533 -15.139189 4.160482 -32.592223 -15.997537 13.302901 -7.634126 
